<?xml version="1.0" encoding="utf-8"?>
<!-- Generator: Adobe Illustrator 16.0.0, SVG Export Plug-In . SVG Version: 6.00 Build 0)  -->
<!DOCTYPE svg PUBLIC "-//W3C//DTD SVG 1.1//EN" "http://www.w3.org/Graphics/SVG/1.1/DTD/svg11.dtd">
<svg version="1.1" id="Layer_1" xmlns="http://www.w3.org/2000/svg" xmlns:xlink="http://www.w3.org/1999/xlink" x="0px" y="0px"
	 width="368.5px" height="33px" viewBox="0 0 368.5 33" enable-background="new 0 0 368.5 33" xml:space="preserve">
<polygon fill-rule="evenodd" clip-rule="evenodd" fill="#666666" points="32.817,13.909 32.817,3.296 37.512,3.296 37.512,29.24 
	32.841,29.24 32.841,18.613 25.616,18.613 25.616,29.227 21.035,29.227 21.035,3.282 25.566,3.282 25.566,13.909 32.817,13.909 "/>
<polygon fill-rule="evenodd" clip-rule="evenodd" fill="#666666" points="45.115,24.689 57.017,24.689 57.017,29.227 40.53,29.227 
	40.53,3.282 57.019,3.282 57.019,7.808 45.126,7.808 45.126,13.944 52.271,13.944 52.271,18.553 45.115,18.553 45.115,24.689 "/>
<polyline fill-rule="evenodd" clip-rule="evenodd" fill="#666666" points="7.545,7.839 1.541,7.839 1.541,3.271 1.541,3.271 
	18.03,3.271 18.03,7.808 12.093,7.808 12.093,29.245 7.479,29.245 7.479,7.839 "/>
<g>
	<polyline fill-rule="evenodd" clip-rule="evenodd" fill="#45A2CE" points="75.924,7.466 70.959,23.648 68.721,31.099 
		68.564,31.637 65.282,31.639 65.893,29.543 69.544,17.604 74.592,0.887 75.207,0.875 77.893,0.883 	"/>
	<polygon fill-rule="evenodd" clip-rule="evenodd" fill="#45A2CE" points="79.944,31.605 76.639,31.605 85.92,0.916 89.26,0.916 
		79.944,31.605 	"/>
</g>
<polyline fill-rule="evenodd" clip-rule="evenodd" fill="#666666" points="220.381,3.056 224.755,3.044 231.78,17.222 
	232.29,17.899 232.29,3.088 236.881,3.088 236.881,29.234 232.58,29.23 232.293,28.681 225.481,15.082 224.977,14.392 
	224.977,29.192 220.381,29.192 220.381,3.056 "/>
<path fill-rule="evenodd" clip-rule="evenodd" fill="#666666" d="M184.725,29.207c-1.602,0-3.078,0-4.59,0c0-8.7,0-17.342,0-26.125
	c0.228,0,0.471-0.027,0.713-0.027c3.525,0,7.053-0.008,10.578,0.002c3.189,0.01,5.123,2.037,5.11,5.098
	c-0.009,1.856-0.04,3.712,0.009,5.567c0.056,2.188-1.301,3.971-3.262,4.515c-0.216,0.06-0.425,0.142-0.707,0.237
	c1.331,3.578,2.654,7.131,4.005,10.762c-1.622,0-3.149,0.012-4.675-0.018c-0.152-0.003-0.375-0.232-0.439-0.404
	c-0.877-2.32-1.73-4.649-2.591-6.976c-0.355-0.96-0.646-1.95-1.089-2.872c-0.219-0.453-0.225-0.458-0.561-0.454
	c-0.83,0.009-1.617,0.004-2.502,0.004C184.725,22.085,184.725,25.62,184.725,29.207z M184.75,7.796c0,2.039,0,3.993,0,5.98
	c2.042,0,4.034,0.014,6.025-0.007c0.637-0.007,1.135-0.581,1.152-1.314c0.025-1.112,0.025-2.226,0-3.338
	c-0.018-0.733-0.517-1.308-1.152-1.314C188.783,7.783,186.791,7.796,184.75,7.796z"/>
<path fill-rule="evenodd" clip-rule="evenodd" fill="#666666" d="M216.727,16.222c0,2.736,0.052,5.475-0.02,8.209
	c-0.045,1.668-0.611,3.203-2.154,4.067c-0.729,0.408-1.625,0.677-2.457,0.708c-2.432,0.092-4.871,0.071-7.305,0.023
	c-2.604-0.053-4.413-1.926-4.473-4.281c-0.139-5.555-0.163-11.113-0.145-16.67c0.007-1.82,0.588-3.54,2.299-4.495
	c0.76-0.424,1.711-0.658,2.588-0.695c2.245-0.095,4.498-0.077,6.746-0.021c3.07,0.077,4.775,1.837,4.896,4.945
	C216.811,10.745,216.727,13.485,216.727,16.222z M212.125,16.22c0-2.273,0.006-4.546-0.002-6.819
	c-0.004-1.108-0.479-1.601-1.521-1.604c-1.461-0.004-2.923-0.007-4.385,0.001c-0.791,0.004-1.324,0.51-1.324,1.269
	c-0.005,4.731-0.005,9.462,0,14.194c0,0.643,0.416,1.189,1.053,1.227c1.52,0.089,3.047,0.183,4.566,0.123
	c1.2-0.048,1.613-0.633,1.613-1.852C212.125,20.579,212.125,18.399,212.125,16.22z"/>
<path fill-rule="evenodd" clip-rule="evenodd" fill="#666666" d="M153.293,29.239l-4.777-0.008l-0.15-0.586l-0.861-3.723h-2.506
	h-2.461l-0.881,3.816l-0.43,0.477l-4.479,0.022l6.06-26.156h4.394L153.293,29.239L153.293,29.239z M145.096,14.386l-0.145-0.006
	l-1.32,5.754h2.781L145.096,14.386L145.096,14.386z"/>
<polygon fill-rule="evenodd" clip-rule="evenodd" fill="#666666" points="103.084,18.491 103.084,29.205 98.359,29.205 
	98.359,28.476 98.346,3.906 98.346,3.041 114.166,3.056 114.893,3.056 114.893,7.774 103.152,7.774 103.152,13.771 110.307,13.771 
	110.307,18.491 103.084,18.491 "/>
<polyline fill-rule="evenodd" clip-rule="evenodd" fill="#666666" points="117.841,3.055 122.594,3.044 122.594,4.196 
	122.594,24.636 134.373,24.636 134.373,29.188 117.854,29.188 117.855,28.532 117.841,3.055 "/>
<polygon fill-rule="evenodd" clip-rule="evenodd" fill="#666666" points="168.098,3.083 168.098,7.772 162.175,7.772 162.175,29.19 
	157.553,29.19 157.553,7.819 151.746,7.819 151.746,3.083 168.098,3.083 "/>
<polygon fill-rule="evenodd" clip-rule="evenodd" fill="#666666" points="171.744,29.198 171.744,28.493 171.734,3.083 
	171.734,3.044 176.297,3.083 176.297,29.198 171.744,29.198 "/>
<path fill-rule="evenodd" clip-rule="evenodd" fill="#666666" d="M324.639,16.867c0,2.714,0.018,5.428-0.007,8.143
	c-0.017,1.831-0.698,3.364-2.328,4.307c-0.548,0.316-1.241,0.52-1.873,0.534c-2.573,0.06-5.149-0.009-7.724,0.034
	c-2.231,0.038-3.807-1.412-4.338-3.384c-0.206-0.764-0.289-1.581-0.293-2.375c-0.026-4.825-0.049-9.65,0.007-14.475
	c0.018-1.57,0.171-3.153,1.376-4.406c0.824-0.857,1.789-1.386,2.961-1.402c2.644-0.038,5.291-0.083,7.933,0.01
	c2.142,0.076,3.624,1.445,4.126,3.652c0.166,0.729,0.148,1.507,0.153,2.263C324.649,12.135,324.639,14.501,324.639,16.867z
	 M312.803,16.9c0,2.295-0.002,4.59,0,6.885c0.001,0.971,0.501,1.48,1.479,1.487c1.413,0.009,2.828,0.007,4.242,0.001
	c0.915-0.004,1.511-0.575,1.511-1.473c0.006-4.59,0.006-9.18,0.001-13.77c-0.001-0.975-0.603-1.587-1.581-1.597
	c-1.367-0.014-2.736-0.042-4.102,0.009c-1.06,0.04-1.576,0.528-1.561,1.572C312.824,12.31,312.803,14.605,312.803,16.9z"/>
<path fill-rule="evenodd" clip-rule="evenodd" fill="#666666" d="M344.83,16.837c0,2.69,0.033,5.379-0.014,8.069
	c-0.026,1.471-0.449,2.822-1.595,3.869c-0.763,0.697-1.64,1.088-2.661,1.094c-2.551,0.018-5.102-0.026-7.651,0.016
	c-2.267,0.037-3.761-1.352-4.345-3.291c-0.207-0.688-0.294-1.436-0.298-2.156c-0.024-5.125-0.024-10.25-0.005-15.374
	c0.005-1.298,0.344-2.516,1.14-3.582s1.888-1.61,3.175-1.635c2.643-0.051,5.288-0.08,7.929,0.004
	c2.255,0.071,3.948,1.629,4.146,3.908c0.219,2.502,0.134,5.032,0.178,7.549C344.837,15.817,344.83,16.327,344.83,16.837z
	 M340.229,16.879c0-2.227,0.007-4.453-0.002-6.68c-0.004-1.077-0.57-1.748-1.512-1.763c-1.414-0.022-2.829-0.024-4.244,0.001
	c-0.877,0.016-1.314,0.377-1.472,1.213c-0.101,0.535-0.138,1.089-0.139,1.635c-0.011,4.013-0.024,8.025,0.003,12.038
	c0.01,1.461,0.59,2.027,1.942,1.963c1.736-0.012,1.739,0.014,3.546,0.006c1.258,0.008,1.896-0.67,1.884-1.873
	C340.213,21.24,340.229,19.06,340.229,16.879z"/>
<polygon fill-rule="evenodd" clip-rule="evenodd" fill="#666666" points="288.061,3.864 292.611,3.864 292.611,9.166 
	292.611,14.501 299.848,14.501 299.848,9.233 299.848,3.887 304.398,3.887 304.398,29.832 299.866,29.832 299.866,19.205 
	292.641,19.205 292.641,29.818 288.061,29.818 288.061,3.864 "/>
<path fill-rule="evenodd" clip-rule="evenodd" fill="#666666" d="M266.199,9.177c-1.586,0.404-3.08,0.784-4.574,1.164
	c-0.287-1.608-0.645-1.91-2.261-1.91c-1.137,0-2.273-0.007-3.41,0.002c-1.075,0.009-1.634,0.587-1.636,1.667
	c-0.001,0.858-0.002,1.717,0,2.575c0.002,0.83,0.491,1.43,1.311,1.594c2.115,0.422,4.244,0.788,6.346,1.271
	c2.793,0.642,4.076,2.049,4.172,5.042c0.047,1.482,0.029,2.969,0.003,4.453c-0.046,2.707-1.722,4.872-4.798,4.844
	c-2.412-0.021-4.824,0.004-7.237-0.006c-2.665-0.01-4.212-2.055-4.396-4.343c-0.023-0.292-0.039-0.585-0.059-0.893
	c0.15-0.059,0.312-0.145,0.484-0.187c1.361-0.334,2.724-0.658,4.086-0.986c0.305,1.568,0.609,1.811,2.244,1.811
	c1.137,0,2.273,0.004,3.409-0.002c0.89-0.004,1.519-0.417,1.618-1.277c0.104-0.911,0.098-1.856-0.018-2.768
	c-0.118-0.932-0.825-1.293-2.079-1.533c-2.146-0.41-4.299-0.823-6.401-1.404c-1.812-0.502-3.265-2.219-3.291-4.338
	c-0.02-1.5-0.164-3-0.113-4.497c0.052-1.506,0.232-3.001,1.367-4.202c0.856-0.905,1.863-1.403,3.084-1.416
	c2.482-0.026,4.965-0.008,7.446-0.007c2.278,0,4.071,1.469,4.511,3.719C266.111,8.083,266.137,8.632,266.199,9.177z"/>
<path fill-rule="evenodd" clip-rule="evenodd" fill="#666666" d="M281.114,23.471c1.368,0.33,2.695,0.66,4.028,0.965
	c0.377,0.087,0.523,0.255,0.514,0.655c-0.054,2.526-1.847,4.872-4.658,4.798c-3.871,0-4.92-0.013-7.38-0.014
	c-2.678-0.001-4.335-2.092-4.384-4.342c-0.113-5.259-0.143-10.519-0.143-15.778c0-1.362,0.1-2.742,0.941-3.945
	c0.896-1.283,2.086-1.969,3.648-1.976c2.298-0.01,4.115-0.005,6.893-0.021c3.324,0,5.205,2.448,5.054,5.378
	c-1.491,0.381-3,0.767-4.51,1.153c-0.243-1.425-0.823-1.912-2.275-1.913c-1.114,0-2.228-0.004-3.342,0.001
	c-1.124,0.006-1.688,0.572-1.688,1.688c0,4.549,0,9.097,0.001,13.646c0,1.006,0.499,1.502,1.53,1.508
	c1.996,0.021,1.996,0.021,3.62,0.01C280.582,25.336,280.854,24.715,281.114,23.471z"/>
<polygon fill-rule="evenodd" clip-rule="evenodd" fill="#666666" points="348.47,29.829 348.47,3.874 353.043,3.874 353.043,25.257 
	364.968,25.257 364.968,29.829 348.47,29.829 "/>
</svg>
